<svg width="452" height="503" viewBox="0 0 452 503" fill="none" xmlns="http://www.w3.org/2000/svg">
<g filter="url(#filter0_d_19_22)">
<path d="M306.03 212.825C306.049 212.152 305.899 212.113 305.581 212.708C302.906 217.75 300.079 222.344 295.866 226.198C294.378 227.563 292.798 228.525 291.126 229.086C287.823 230.203 277.631 233.316 277.429 226.775C277.428 226.679 277.462 226.586 277.524 226.514C277.586 226.442 277.672 226.395 277.765 226.383C279.201 226.185 280.654 225.973 282.124 225.749C287.624 224.908 291.349 221.912 293.297 216.763C294.221 214.314 296.233 209.265 299.333 201.618C301.752 195.654 302.218 189.712 300.729 183.792C299.723 179.773 298.039 176.628 295.675 174.358C290.56 169.439 284.143 167.627 277.491 170.022C270.075 172.692 268.101 181.05 267.59 188.151C267.239 193.072 267.009 197.855 266.901 202.499C266.889 202.899 266.77 202.935 266.542 202.606C265.622 201.282 264.679 199.907 263.715 198.483C262.918 197.305 262.458 195.931 262.082 194.562C261.813 193.579 261.632 193.595 261.538 194.612C261.082 199.691 261.2 204.915 261.892 210.284C263.743 224.599 266.884 239.166 268.067 253.486C268.288 256.156 268.314 259.43 268.146 263.308C267.759 272.327 265.93 279.973 261.415 287.18C261.078 287.719 260.923 287.67 260.949 287.034C261.233 280.12 261.428 273.15 261.533 266.124C261.533 266.06 261.503 266.026 261.443 266.023H261.437C261.385 266.015 261.353 266.039 261.342 266.096C258.907 280.27 254.459 292.745 243.449 302.23C237.219 307.592 229.731 313.018 220.984 318.507C206.632 327.512 190.734 336.429 173.289 345.257C167.198 348.339 162.019 350.857 157.752 352.813C157.367 352.992 157.294 352.906 157.533 352.555C160.242 348.567 162.739 343.911 163.608 339.373C163.78 338.48 163.615 338.412 163.114 339.172C157.875 347.159 151.778 354.686 143.353 358.977C138.137 361.632 132.573 363.485 126.66 364.536C126.006 364.652 125.355 364.564 124.708 364.272C124.525 364.186 124.409 364.046 124.361 363.852C124.129 362.921 124.222 362.077 124.641 361.322C133.027 346.132 136.824 329.804 132.522 312.881C132.257 311.827 132.103 311.842 132.062 312.926C131.871 318.24 131.344 323.849 130.48 329.754C130.398 330.318 130.265 330.332 130.082 329.793C129.459 327.964 128.938 325.996 128.225 324.156C125.178 316.221 123.172 310.868 122.207 308.097C120.216 302.37 118.796 295.656 119.823 289.631C120.956 283.001 126.15 275.816 123.839 268.956C122.353 264.547 121.293 260.352 123.531 256.268C123.628 256.089 123.607 255.926 123.469 255.78C120.412 252.538 120.451 249.145 120.541 244.876C120.545 244.67 120.47 244.498 120.317 244.36C119.52 243.631 118.66 242.969 117.736 242.374C115.044 240.639 112.35 239.05 109.654 237.607C103.899 234.522 99.9777 229.462 101.133 222.568C101.432 220.774 102.564 218.126 104.527 214.626C108.139 208.202 111.725 201.702 115.285 195.129C118.084 189.962 121.652 184.314 124.265 179.283C126.133 175.676 126.56 172.019 125.499 167.952C125.062 166.281 124.632 164.607 124.209 162.932C123.043 158.338 123.755 154.058 125.067 149.313C127.124 141.849 129.972 134.847 133.61 128.307C134.362 126.953 135.321 125.526 136.488 124.027C136.942 123.438 137.537 123.219 138.243 123.404C138.274 123.412 138.303 123.427 138.328 123.447C138.353 123.467 138.374 123.493 138.388 123.521C138.402 123.55 138.41 123.581 138.412 123.613C138.413 123.646 138.407 123.678 138.395 123.707C134.73 132.226 132.352 140.851 131.26 149.582C130.894 152.495 130.849 155.163 131.125 157.586C131.128 157.614 131.136 157.64 131.15 157.664C131.163 157.688 131.182 157.709 131.204 157.725C131.227 157.741 131.252 157.752 131.279 157.757C131.306 157.762 131.334 157.761 131.361 157.755L135.013 156.796C135.226 156.739 135.405 156.794 135.551 156.958C136.965 158.518 138.552 160.006 140.313 161.423C140.62 161.67 140.704 161.608 140.566 161.238L138.821 156.498C138.804 156.451 138.797 156.401 138.802 156.351C138.807 156.301 138.823 156.253 138.849 156.21C138.874 156.167 138.91 156.13 138.951 156.102C138.993 156.075 139.041 156.057 139.09 156.05L141.11 155.792C141.42 155.754 141.68 155.851 141.889 156.083L145.092 159.656C145.522 160.139 145.664 160.064 145.518 159.432C145.279 158.392 144.993 157.351 144.66 156.308C144.642 156.249 144.638 156.186 144.65 156.126C144.661 156.065 144.686 156.008 144.724 155.959C144.762 155.911 144.812 155.872 144.868 155.847C144.924 155.822 144.986 155.81 145.047 155.814C147.179 155.952 149.243 156.395 151.24 157.143C160.97 160.782 170.44 165.148 179.65 170.241C181.568 171.301 187.054 174.476 187.727 176.142C187.75 176.196 187.757 176.255 187.748 176.313C187.738 176.371 187.712 176.426 187.672 176.469C187.633 176.513 187.581 176.544 187.525 176.56C187.468 176.575 187.408 176.574 187.352 176.557C176.111 173.152 164.937 169.652 153.489 167.868C149.142 167.189 144.284 166.791 140.179 168.238C139.666 168.418 139.679 168.545 140.218 168.62C152.205 170.241 163.726 173.432 174.232 179.513C174.37 179.595 174.473 179.705 174.54 179.844C174.604 179.971 174.568 180.051 174.434 180.085C166.996 181.954 159.457 183.832 151.818 185.716C147.97 186.664 140.902 189.054 138.215 184.752C137.191 183.11 136.142 181.203 135.069 179.03C135.049 178.99 135.018 178.956 134.98 178.933C134.942 178.909 134.898 178.897 134.854 178.898C134.809 178.898 134.765 178.912 134.728 178.936C134.691 178.961 134.661 178.995 134.642 179.036C133.717 181.156 132.836 183.389 131.535 185.284C124.295 195.833 117.718 206.573 111.802 217.503C110.882 219.197 110.28 220.904 109.996 222.625C109.351 226.517 112.957 228.711 116.115 229.877C122.274 232.158 128.196 233.525 133.879 233.978C137.946 234.303 145.664 233.837 147.74 229.4C148.282 228.245 148.57 226.981 148.603 225.609C148.606 225.536 148.626 225.464 148.663 225.401C148.699 225.338 148.751 225.285 148.814 225.247C148.876 225.209 148.947 225.187 149.02 225.184C149.093 225.18 149.166 225.195 149.232 225.227C154.555 227.869 153.904 234.073 150.864 238.016C150.707 238.226 150.756 238.356 151.01 238.409C160.366 240.333 168.516 245.336 172.605 254.058C172.949 254.787 172.775 254.946 172.083 254.535C169.571 253.032 167.114 252.31 164.713 252.37C163.557 252.396 163.498 252.663 164.533 253.172C170.352 256.021 174.563 260.228 177.165 265.793C178.568 268.805 179.779 271.794 180.89 274.896C181.185 275.723 181.389 275.7 181.501 274.829C182.073 270.392 180.727 265.692 178.45 261.72C178.296 261.455 178.369 261.358 178.669 261.429C195.058 265.215 215.633 252.454 227.614 241.813C229.338 240.284 230.895 238.691 232.286 237.034C232.649 236.604 232.574 236.505 232.062 236.737C225.763 239.575 219.318 241.954 212.514 242.307C211.987 242.337 211.95 242.214 212.402 241.937C223.961 234.866 231.479 224.481 234.956 210.784C236.022 206.573 236.669 201.618 236.897 195.919C237.385 183.658 234.278 172.731 227.681 161.805C224.849 157.126 220.754 153.402 217.024 149.56C215.723 148.217 214.584 146.656 213.608 144.876C211.218 140.535 214.668 137.107 218.073 134.998C232.87 125.816 250.516 121.088 267.927 119.024C291.13 116.268 314.5 116.959 338.036 121.099C339.79 121.406 339.859 121.189 338.243 120.448C325.578 114.626 311.392 111.934 297.139 110.918C277.676 109.535 257.679 110.471 237.15 113.728C234.169 114.203 231.013 114.835 227.681 115.624C227.079 115.766 227.057 115.703 227.614 115.434C247.867 105.749 268.963 99.1036 290.902 95.4987C294.357 94.9304 297.871 94.4031 301.442 93.917C301.629 93.8908 301.636 93.8422 301.464 93.7711C301.445 93.7637 301.436 93.7506 301.436 93.7319C301.432 93.6758 301.404 93.6459 301.352 93.6421C294.696 93.313 288.46 93.4907 282.645 94.175C272.725 95.338 262.15 97.0188 250.92 99.2176C233.19 102.695 214.528 106.594 196.696 107.744C183.049 108.624 164.051 107.581 157.909 92.9129C156.641 89.884 155.905 86.5297 155.699 82.8501C155.699 82.8239 155.688 82.8108 155.665 82.8108L155.385 82.8052C155.363 82.8052 155.349 82.8164 155.346 82.8389C153.67 93.7169 156.808 102.581 164.758 109.432C165.117 109.739 165.061 109.875 164.59 109.841C147.369 108.619 133.352 98.2304 126.818 82.2836C123.828 74.9805 122.599 67.0379 122.459 58.871C122.433 57.4463 122.291 57.435 122.033 58.8373C121.236 63.1078 120.913 67.6456 121.063 72.4507C121.68 92.2174 133.773 105.808 150.011 115.591C150.808 116.069 150.752 116.204 149.843 115.995C128.377 111.008 110.904 96.5252 106.024 74.47C102.098 56.7115 106.877 38.0891 117.546 23.5109C125.305 12.9021 135.431 5.13343 147.925 0.204854C148.258 0.0739741 148.349 0.169327 148.2 0.490918C139.472 19.4442 144.817 41.4097 160.097 54.8885C161.091 55.7635 161.226 55.6457 160.5 54.5351C150.023 38.4985 150.292 18.6421 155.161 0.580666C155.374 -0.204615 155.533 -0.193398 155.637 0.61432C157.567 15.4337 163.036 29.2098 176.52 36.7765C181.531 39.5923 187.037 41.6883 193.039 43.0644C202.279 45.1809 211.624 46.4018 221.074 46.7272C221.084 46.7251 221.094 46.7197 221.101 46.7119C221.108 46.7041 221.113 46.6941 221.114 46.6836C221.115 46.673 221.113 46.6623 221.108 46.653C221.103 46.6437 221.095 46.6363 221.085 46.6318C218.707 46.2354 216.276 45.811 213.793 45.3585C199.31 42.7166 184.424 36.7765 173.458 26.8876C168.471 22.3947 164.163 16.4097 163.025 9.92552C162.961 9.55905 163.083 9.48052 163.389 9.68993C170.576 14.5961 179.2 17.4867 189.259 18.3617C193.787 18.7543 198.177 18.9768 202.429 19.0292C211.553 19.1376 220.761 19.2461 230.054 19.3545C250.752 19.5901 272.712 20.5044 293.034 24.341C309.738 27.499 330.772 35.0882 339.808 50.8275C340.078 51.2986 339.978 51.3958 339.511 51.1191C333.707 47.7312 327.186 44.6817 319.946 41.9706C317.542 41.0731 315.053 40.3103 312.48 39.6821C312.054 39.5774 311.624 39.5587 311.19 39.626C310.596 39.7157 310.573 39.8821 311.123 40.1252C322.454 45.151 332.931 50.9845 342.175 58.6354C353.304 67.8512 362.088 79.9165 367.624 93.6365C367.665 93.7337 367.635 93.773 367.534 93.7543C367.516 93.7506 367.497 93.7543 367.478 93.7655C367.445 93.7842 367.417 93.7786 367.394 93.7487C363.943 89.3062 359.42 84.1514 353.826 78.2843C345.086 69.1077 335.633 61.842 325.466 56.4871C315.88 51.4389 305.626 48.006 294.795 45.5548C286.905 43.7711 278.971 42.41 270.995 41.4714C270.909 41.4602 270.859 41.4976 270.844 41.5836L270.821 41.735C270.818 41.7574 270.827 41.7705 270.849 41.7743C282.326 43.7898 293.561 47.0525 304.555 51.5623C334.452 63.8239 358.75 84.7853 371.051 114.637C376.619 128.155 378.812 142.064 377.631 156.364C377.571 157.112 377.414 157.134 377.16 156.431C375.09 150.67 372.184 145.488 367.579 141.477C367.205 141.152 367.104 141.221 367.276 141.685C367.826 143.169 368.37 144.635 368.909 146.082C371.436 152.865 372.869 159.925 373.205 167.262C373.418 171.88 373.143 175.915 372.381 179.367C371.969 181.214 370.797 184.286 368.864 188.583C362.267 203.228 353.495 216.511 343.606 229.086C343.565 229.135 343.529 229.189 343.499 229.249C343.443 229.346 343.361 229.397 343.252 229.4C343.121 229.4 343.048 229.335 343.034 229.204C342.402 223.412 342.011 217.431 341.861 211.26C341.854 210.838 341.766 210.821 341.598 211.21C337.383 221.067 334.854 231.315 334.008 241.954C334.007 241.977 334 241.998 333.986 242.017C333.972 242.035 333.953 242.049 333.931 242.056C333.909 242.064 333.885 242.065 333.862 242.06C333.839 242.055 333.818 242.043 333.801 242.027C333.704 241.929 333.636 241.817 333.599 241.69C331.4 234.776 329.648 227.97 328.343 221.273C328.332 221.209 328.298 221.176 328.242 221.172C328.224 221.168 328.205 221.168 328.186 221.172C328.156 221.176 328.139 221.192 328.136 221.222C327.246 232.874 327.049 242.84 327.547 251.119C327.666 253.071 328.063 257.934 328.736 265.708C329.027 269.022 329.906 273.221 331.372 278.307C333.197 284.63 335.414 291.138 338.025 297.832C338.615 299.347 339.223 300.465 339.848 301.186C343.931 305.902 348.495 310.81 353.539 315.91C353.563 315.934 353.581 315.963 353.59 315.995C353.599 316.027 353.6 316.06 353.592 316.093C353.584 316.125 353.568 316.155 353.545 316.179C353.522 316.203 353.493 316.221 353.461 316.23L334.782 322.333C334.139 322.542 334.156 322.647 334.833 322.647H360.018C360.284 322.647 360.514 322.739 360.708 322.922C365.91 327.88 371.242 332.7 376.705 337.382C377.038 337.663 376.988 337.782 376.554 337.741C365.317 336.634 353.854 336.539 342.164 337.455C328.306 338.543 313.943 340.57 299.075 343.535C285.246 346.291 273.407 348.911 263.557 351.394C236.017 358.338 207.18 366.404 177.047 375.592C166.016 378.953 155.138 382.282 144.413 385.576C143.479 385.864 143.363 385.666 144.066 384.981C147.757 381.392 151.793 378.052 156.176 374.964C168.935 365.97 182.531 357.407 196.966 349.274C238.72 325.753 282.225 306.235 327.479 290.72C327.711 290.641 327.758 290.501 327.62 290.299C324.759 286.085 321.982 281.882 319.29 277.69C316.358 273.135 314.466 268.309 313.614 263.212C313.004 259.566 312.609 255.977 312.43 252.443C312.359 251.097 312.138 251.072 311.768 252.37C310.792 255.762 310.334 259.123 310.394 262.455C310.413 263.427 310.218 263.472 309.811 262.59C306.853 256.132 306.166 249.554 307.752 242.857C307.879 242.322 307.795 242.287 307.5 242.75C304.903 246.778 303.831 252.291 303.904 257.11C304.027 264.996 306.299 272.877 308.902 280.27C309.205 281.137 309.022 281.257 308.352 280.629C306.823 279.197 305.454 277.433 304.246 275.339C300.118 268.171 297.618 260.288 296.747 251.691C295.99 244.197 297.173 237.775 300.118 230.859C302.535 225.194 305.873 219.035 306.03 212.825ZM154.538 279.227C155.536 282.861 155.581 285.722 155.458 289.233C155.428 290.06 155.594 290.101 155.957 289.357C157.06 287.094 157.683 284.576 157.825 281.801C158.476 269.141 150.124 255.343 135.663 257.356C133.262 257.693 131.041 258.989 130.794 261.653C130.245 267.593 135.142 269.882 139.713 271.873C139.754 271.891 139.789 271.919 139.815 271.955C139.841 271.991 139.857 272.033 139.861 272.077C139.865 272.121 139.857 272.166 139.838 272.206C139.819 272.246 139.789 272.28 139.752 272.305L137.643 273.752C137.434 273.894 137.34 274.09 137.363 274.341L137.733 278.66C137.755 278.911 137.883 279.088 138.114 279.193C142.652 281.235 149.243 280.017 153.983 278.901C154.274 278.834 154.459 278.942 154.538 279.227Z" fill="#1E1E1E"/>
<path d="M272.689 187.848C273.379 183.501 274.944 178.823 278.882 176.758C283.588 174.29 288.311 177.454 290.481 181.829C291.214 183.303 291.717 184.882 291.99 186.569C292.136 187.47 291.953 187.543 291.441 186.788C290.117 184.841 288.344 183.08 286.151 182.239C281.31 180.376 277.822 183.837 277.491 188.426C277.233 192.066 281.024 194.764 283.56 197.013C286.863 199.947 288.17 203.509 284.031 206.594C281.725 208.316 279.409 209.527 278.231 212.444C277.281 214.807 277.436 217.028 278.697 219.108C278.718 219.145 278.728 219.187 278.727 219.23C278.725 219.273 278.712 219.315 278.688 219.35C278.664 219.386 278.63 219.414 278.591 219.431C278.552 219.449 278.509 219.455 278.467 219.45C274.176 218.855 270.877 216.948 271.001 212.147C271.141 207.02 273.39 204.002 276.414 200.188C277.39 198.961 277.348 197.785 276.29 196.66C275.23 195.527 273.946 194.511 273.205 193.126C272.513 191.828 272.341 190.069 272.689 187.848Z" fill="#1E1E1E"/>
<path d="M153.983 278.901C149.243 280.017 142.652 281.235 138.114 279.193C137.882 279.088 137.755 278.911 137.733 278.66L137.363 274.341C137.34 274.09 137.434 273.894 137.643 273.752L139.752 272.305C139.789 272.28 139.819 272.246 139.838 272.206C139.857 272.166 139.865 272.121 139.861 272.077C139.857 272.033 139.841 271.991 139.815 271.955C139.789 271.919 139.754 271.891 139.713 271.873C135.141 269.882 130.245 267.593 130.794 261.653C131.041 258.989 133.262 257.693 135.663 257.356C150.123 255.343 158.476 269.141 157.825 281.801C157.683 284.576 157.06 287.094 155.957 289.357C155.594 290.101 155.428 290.06 155.458 289.233C155.581 285.722 155.536 282.861 154.538 279.227C154.459 278.942 154.274 278.834 153.983 278.901Z" fill="#1E1E1E"/>
</g>
<path d="M61.327 419.356H61.2418C62.7183 419.356 64.2657 419.512 65.8841 419.824C67.5309 420.136 69.1635 420.576 70.7819 421.144C72.4003 421.684 73.9335 422.365 75.3815 423.189C76.8579 423.984 78.164 424.864 79.2997 425.829C81.3156 427.589 83.0334 429.336 84.4531 431.068C85.8727 432.771 87.0226 434.56 87.9028 436.434C88.783 438.279 89.4218 440.253 89.8193 442.354C90.2168 444.455 90.4156 446.755 90.4156 449.253C90.4156 451.894 90.1174 454.549 89.5212 457.217C88.9249 459.886 88.0164 462.428 86.7955 464.841C85.5746 467.226 84.0272 469.412 82.1532 471.4C80.2793 473.387 78.0788 475.02 75.5519 476.298C75.126 476.525 74.6149 476.766 74.0187 477.022C73.4508 477.249 72.8687 477.476 72.2725 477.703C71.7046 477.93 71.151 478.143 70.6115 478.342C70.1004 478.541 69.6745 478.697 69.3338 478.81C69.2203 478.924 69.1209 479.009 69.0357 479.066C68.9505 479.123 68.9079 479.179 68.9079 479.236C68.9079 479.378 69.0499 479.506 69.3338 479.619C70.3276 479.932 71.3213 480.187 72.3151 480.386C73.3372 480.613 74.331 480.84 75.2963 481.068C78.4763 481.721 81.628 482.303 84.7512 482.814C87.9028 483.325 91.1112 483.807 94.3764 484.262C97.7267 484.688 101.006 484.972 104.215 485.114C107.423 485.284 110.532 485.369 113.542 485.369C115.472 485.369 116.906 485.341 117.843 485.284C118.808 485.227 119.362 485.199 119.504 485.199C120.044 485.199 120.398 485.241 120.569 485.326C120.768 485.412 120.867 485.525 120.867 485.667C120.867 485.724 120.796 485.795 120.654 485.88C120.54 485.965 120.398 486.05 120.228 486.136C120.058 486.221 119.873 486.292 119.674 486.349C119.504 486.405 119.376 486.448 119.291 486.476C118.752 486.618 118.198 486.76 117.63 486.902C117.062 487.044 116.523 487.172 116.012 487.286C115.501 487.428 115.032 487.541 114.606 487.626C114.209 487.74 113.882 487.839 113.627 487.924C113.428 487.981 112.747 488.137 111.582 488.393C110.418 488.677 108.985 488.989 107.281 489.33C105.776 489.585 104.399 489.784 103.15 489.926C101.9 490.096 100.68 490.224 99.4871 490.309C98.2946 490.423 97.0737 490.494 95.8244 490.522C94.6035 490.551 93.269 490.565 91.821 490.565C90.4582 490.565 89.1521 490.537 87.9028 490.48C86.6535 490.451 85.4042 490.38 84.1549 490.267C82.9056 490.153 81.628 489.997 80.3219 489.798C79.0158 489.6 77.6104 489.344 76.1055 489.032C72.6984 488.322 69.2345 487.314 65.7137 486.008C62.2214 484.702 58.942 483.183 55.8756 481.451C54.7115 480.798 53.5758 480.145 52.4684 479.492C51.3895 478.839 50.3248 478.157 49.2742 477.447C48.2521 476.738 47.2158 475.985 46.1652 475.19C45.1431 474.395 44.1209 473.515 43.0988 472.55C42.3606 471.868 41.5514 471.045 40.6712 470.079C39.791 469.086 38.9108 468.049 38.0306 466.97C37.1789 465.863 36.3697 464.756 35.6031 463.648C34.8648 462.513 34.2544 461.448 33.7717 460.454C31.699 456.422 30.6627 452.121 30.6627 447.55C30.6627 444.512 31.1596 441.601 32.1533 438.819C33.1471 436.036 34.6093 433.353 36.54 430.769C37.7325 429.208 39.138 427.76 40.7564 426.425C42.4032 425.091 44.2487 423.927 46.293 422.933C48.3657 421.911 50.6513 421.102 53.1499 420.505C55.6768 419.881 58.4026 419.498 61.327 419.356ZM60.7308 422.081C59.0272 422.081 57.6218 422.237 56.5144 422.55C55.4071 422.834 54.3282 423.231 53.2776 423.742C52.1419 424.31 51.1198 424.977 50.2112 425.744C49.331 426.511 48.536 427.348 47.8262 428.257C47.1448 429.137 46.5201 430.045 45.9523 430.982C45.4128 431.919 44.9159 432.828 44.4616 433.708C44.0357 434.56 43.6382 435.398 43.2691 436.221C42.9 437.016 42.5593 437.854 42.247 438.734C41.9347 439.585 41.6649 440.494 41.4378 441.459C41.2107 442.425 41.0119 443.504 40.8415 444.696C40.6996 445.974 40.5718 447.45 40.4582 449.126C40.3731 450.772 40.3305 452.334 40.3305 453.81C40.3305 455.855 40.515 457.942 40.8841 460.071C41.2532 462.172 41.8211 464.188 42.5877 466.119C43.6382 468.816 45.0011 471.116 46.6763 473.018C48.3515 474.892 50.4809 476.567 53.0647 478.044C54.5411 478.867 55.9466 479.392 57.281 479.619C58.6439 479.847 60.0635 479.96 61.54 479.96C62.5621 479.96 63.5843 479.776 64.6064 479.407C65.6286 479.009 66.6223 478.512 67.5877 477.916C68.553 477.291 69.4332 476.61 70.2282 475.872C71.0516 475.133 71.7614 474.409 72.3577 473.7C73.0959 472.848 73.7347 472.024 74.2742 471.229C74.8137 470.434 75.2963 469.668 75.7222 468.93C76.1481 468.191 76.5314 467.453 76.8721 466.715C77.2129 465.948 77.5536 465.182 77.8943 464.415C78.4905 463.137 78.9732 461.874 79.3423 460.625C79.7114 459.375 79.9954 458.126 80.1941 456.877C80.4213 455.599 80.5632 454.307 80.62 453.001C80.7052 451.667 80.7478 450.275 80.7478 448.827C80.7478 447.663 80.7194 446.428 80.6626 445.122C80.6058 443.788 80.4213 442.51 80.1089 441.289C79.7114 439.841 79.2146 438.365 78.6183 436.86C78.0504 435.327 77.4116 433.864 76.7018 432.473C75.992 431.082 75.2112 429.804 74.3594 428.64C73.5076 427.448 72.599 426.454 71.6337 425.659C69.9017 424.268 68.1271 423.331 66.31 422.848C64.5212 422.337 62.6615 422.081 60.7308 422.081ZM139.734 479.534V468.418C139.734 468.277 139.706 467.993 139.649 467.567C139.62 467.112 139.578 466.729 139.521 466.417C139.521 466.36 139.464 466.275 139.351 466.161L139.223 466.033C139.024 466.033 138.854 466.19 138.712 466.502C138.201 467.553 137.775 468.404 137.434 469.057C137.122 469.71 136.795 470.307 136.455 470.846C136.114 471.386 135.702 471.939 135.22 472.507C134.765 473.047 134.155 473.714 133.388 474.509C132.565 475.417 131.543 476.227 130.322 476.936C129.129 477.618 127.852 478.2 126.489 478.683C125.154 479.165 123.806 479.534 122.443 479.79C121.08 480.017 119.816 480.131 118.652 480.131C117.545 480.131 116.438 480.031 115.33 479.832C114.251 479.605 113.428 479.336 112.86 479.023C111.866 478.484 110.972 477.859 110.177 477.149C109.41 476.439 108.729 475.701 108.133 474.935C107.536 474.168 107.025 473.387 106.6 472.592C106.202 471.797 105.904 471.045 105.705 470.335C105.535 469.824 105.379 469.114 105.237 468.206C105.123 467.297 105.01 466.303 104.896 465.224C104.811 464.145 104.726 463.038 104.64 461.902C104.584 460.738 104.527 459.659 104.47 458.666C104.442 457.643 104.413 456.749 104.385 455.982C104.385 455.216 104.385 454.691 104.385 454.407V421.996C104.385 421.599 104.115 421.4 103.576 421.4H95.4411C95.0152 421.4 94.8023 421.031 94.8023 420.293C94.8023 419.668 95.0152 419.356 95.4411 419.356H113.073C113.243 419.356 113.442 419.427 113.669 419.568C113.896 419.682 114.01 419.923 114.01 420.293V457.43C114.01 463.251 115.089 467.567 117.247 470.378C119.149 472.848 121.861 474.083 125.381 474.083C125.836 474.083 126.304 474.026 126.787 473.913C127.27 473.799 127.738 473.671 128.192 473.529C128.675 473.359 129.115 473.188 129.513 473.018C129.938 472.819 130.322 472.635 130.663 472.464C131.855 471.84 132.891 471.187 133.772 470.505C134.652 469.796 135.418 469.043 136.071 468.248C136.753 467.425 137.321 466.53 137.775 465.565C138.229 464.6 138.613 463.535 138.925 462.371C139.067 461.888 139.18 461.32 139.266 460.667C139.379 460.014 139.464 459.333 139.521 458.623C139.606 457.885 139.663 457.146 139.691 456.408C139.72 455.67 139.734 455.003 139.734 454.407V422.209C139.365 421.726 138.712 421.428 137.775 421.315C136.866 421.173 135.929 421.073 134.964 421.017C134.623 421.017 134.283 421.017 133.942 421.017C133.601 420.988 133.175 420.974 132.664 420.974C132.182 420.974 131.543 420.96 130.748 420.931C129.981 420.903 129.016 420.889 127.852 420.889C127.284 420.889 127 420.562 127 419.909C127 419.625 127.085 419.37 127.255 419.143C127.426 418.887 127.809 418.759 128.405 418.759L148.635 418.887C148.891 418.887 149.09 419.029 149.231 419.313C149.373 419.597 149.444 419.923 149.444 420.293L148.891 473.785C149.061 474.012 149.402 474.154 149.913 474.211C150.452 474.267 150.921 474.296 151.318 474.296C152.624 474.296 153.888 474.182 155.109 473.955C156.358 473.7 157.693 473.572 159.112 473.572C159.595 473.572 159.836 473.842 159.836 474.381C159.836 474.665 159.666 474.906 159.325 475.105C158.984 475.275 158.573 475.432 158.09 475.573C157.636 475.687 157.139 475.786 156.599 475.872C156.088 475.957 155.648 476.042 155.279 476.127C153.945 476.439 152.539 476.766 151.063 477.107C149.586 477.419 148.138 477.831 146.719 478.342C146.321 478.484 145.824 478.683 145.228 478.938C144.66 479.165 144.078 479.392 143.482 479.619C142.886 479.847 142.332 480.045 141.821 480.216C141.31 480.386 140.927 480.471 140.671 480.471C140.444 480.471 140.231 480.4 140.032 480.258C139.833 480.088 139.734 479.847 139.734 479.534ZM173.124 474.168V426.17C173.124 424.977 172.911 424.083 172.485 423.487C172.059 422.862 171.52 422.422 170.867 422.166C170.242 421.883 169.561 421.726 168.823 421.698C168.084 421.67 167.389 421.641 166.736 421.613C166.111 421.556 165.586 421.442 165.16 421.272C164.734 421.102 164.521 420.747 164.521 420.207C164.521 419.838 164.691 419.611 165.032 419.526C165.401 419.412 165.742 419.356 166.054 419.356H168.439C169.149 419.356 169.788 419.384 170.356 419.441C170.952 419.469 171.506 419.512 172.017 419.568C172.556 419.625 173.096 419.682 173.635 419.739C174.203 419.767 174.828 419.781 175.509 419.781C176.9 419.781 178.121 419.753 179.172 419.696C180.222 419.611 181.23 419.526 182.196 419.441C183.161 419.356 184.126 419.285 185.092 419.228C186.057 419.143 187.136 419.1 188.329 419.1H191.182C191.579 419.1 191.906 419.185 192.162 419.356C192.417 419.498 192.616 419.583 192.758 419.611C192.871 419.923 192.942 420.094 192.971 420.122C192.999 420.151 193.013 420.278 193.013 420.505C193.013 420.818 192.758 421.073 192.247 421.272C191.764 421.471 191.196 421.641 190.543 421.783C189.919 421.897 189.28 421.996 188.627 422.081C187.974 422.138 187.505 422.209 187.221 422.294C186.767 422.379 186.284 422.465 185.773 422.55C185.262 422.607 184.794 422.72 184.368 422.89C183.942 423.032 183.587 423.26 183.303 423.572C183.019 423.856 182.877 424.268 182.877 424.807V475.403C182.877 475.999 183.09 476.468 183.516 476.809C183.97 477.121 184.524 477.362 185.177 477.533C185.83 477.675 186.54 477.774 187.306 477.831C188.101 477.888 188.825 477.959 189.478 478.044C190.131 478.129 190.671 478.271 191.097 478.47C191.551 478.64 191.778 478.924 191.778 479.321C191.778 479.634 191.693 479.832 191.523 479.918C191.352 480.003 191.196 480.074 191.054 480.131C190.657 480.244 190.174 480.344 189.606 480.429C189.038 480.514 188.541 480.556 188.116 480.556C187.093 480.556 186.156 480.528 185.305 480.471C184.453 480.414 183.629 480.358 182.834 480.301C182.039 480.244 181.244 480.187 180.449 480.131C179.654 480.074 178.788 480.045 177.852 480.045C177.397 480.045 176.758 480.06 175.935 480.088C175.14 480.116 174.274 480.159 173.337 480.216C172.428 480.244 171.52 480.273 170.611 480.301C169.703 480.329 168.922 480.344 168.269 480.344H164.904C164.762 480.344 164.564 480.273 164.308 480.131C164.053 479.989 163.925 479.761 163.925 479.449C163.925 478.881 164.166 478.541 164.649 478.427C165.273 478.257 165.827 478.129 166.31 478.044C166.821 477.93 167.346 477.831 167.886 477.746C168.425 477.632 169.021 477.518 169.674 477.405C170.327 477.291 171.137 477.135 172.102 476.936C172.585 476.794 172.869 476.482 172.954 475.999C173.067 475.517 173.124 474.906 173.124 474.168ZM207.153 476.809V446.953C207.153 446.073 207.181 444.867 207.238 443.333C207.295 441.772 207.366 440.097 207.451 438.308C207.536 436.519 207.607 434.702 207.664 432.856C207.721 431.011 207.749 429.35 207.749 427.873C207.749 425.886 207.664 424.438 207.494 423.529C207.437 422.99 207.21 422.564 206.812 422.252C206.443 421.911 205.975 421.655 205.407 421.485C204.867 421.286 204.243 421.158 203.533 421.102C202.851 421.017 202.184 420.946 201.531 420.889C200.907 420.804 200.31 420.733 199.742 420.676C199.203 420.591 198.777 420.463 198.465 420.293C198.096 420.094 197.911 419.852 197.911 419.568C197.911 419.341 197.925 419.185 197.954 419.1C198.01 419.015 198.096 418.944 198.209 418.887C198.55 418.773 198.876 418.703 199.189 418.674C199.53 418.617 199.828 418.589 200.083 418.589H201.702C202.979 418.589 204.072 418.617 204.981 418.674C205.918 418.703 206.784 418.759 207.579 418.844C208.374 418.901 209.155 418.958 209.921 419.015C210.688 419.043 211.554 419.057 212.519 419.057C213.57 419.057 214.535 419.001 215.415 418.887C216.324 418.773 217.176 418.646 217.971 418.504C218.794 418.362 219.575 418.234 220.313 418.12C221.08 418.007 221.846 417.95 222.613 417.95H224.146C224.458 417.95 224.799 417.978 225.168 418.035C225.537 418.092 225.722 418.305 225.722 418.674C225.722 419.157 225.395 419.498 224.742 419.696C224.26 419.838 223.692 419.966 223.039 420.08C222.414 420.165 221.704 420.363 220.909 420.676C220.171 420.846 219.561 421.031 219.078 421.229C218.624 421.428 218.283 421.584 218.056 421.698C217.744 421.897 217.46 422.152 217.204 422.465C216.977 422.777 216.863 423.231 216.863 423.827V475.19C216.863 475.815 217.034 476.298 217.374 476.638C217.715 476.979 218.141 477.234 218.652 477.405C219.192 477.575 219.759 477.675 220.356 477.703C220.98 477.731 221.562 477.746 222.102 477.746C222.727 477.746 223.607 477.717 224.742 477.66C225.878 477.604 227.071 477.518 228.32 477.405C229.569 477.291 230.776 477.149 231.94 476.979C233.133 476.78 234.098 476.553 234.836 476.298C235.83 475.957 236.738 475.616 237.562 475.275C238.414 474.906 239.123 474.452 239.691 473.913C239.776 473.856 239.918 473.742 240.117 473.572C240.316 473.373 240.529 473.146 240.756 472.89C241.012 472.606 241.253 472.308 241.48 471.996C241.707 471.684 241.906 471.371 242.076 471.059C242.247 470.832 242.389 470.633 242.502 470.463C242.644 470.292 242.772 470.15 242.885 470.037C242.999 469.895 243.141 469.654 243.311 469.313C243.482 468.972 243.666 468.589 243.865 468.163C244.092 467.737 244.319 467.311 244.546 466.885C244.774 466.431 245.001 466.005 245.228 465.608C245.427 465.352 245.611 465.139 245.782 464.969C245.98 464.798 246.236 464.713 246.548 464.713C246.86 464.713 247.031 464.898 247.059 465.267C247.116 465.608 247.144 465.948 247.144 466.289C247.144 466.97 247.059 467.666 246.889 468.376C246.747 469.057 246.577 469.739 246.378 470.42C246.179 471.102 245.966 471.783 245.739 472.464C245.512 473.146 245.341 473.827 245.228 474.509C245.086 475.162 244.987 475.843 244.93 476.553C244.901 477.234 244.83 477.873 244.717 478.47C244.632 479.037 244.447 479.506 244.163 479.875C243.908 480.244 243.482 480.429 242.885 480.429H213.754C211.994 480.429 210.518 480.457 209.325 480.514C208.161 480.599 207.096 480.684 206.131 480.769C205.166 480.883 204.2 480.968 203.235 481.025C202.298 481.11 201.19 481.153 199.913 481.153C199.43 481.153 199.018 481.11 198.678 481.025C198.365 480.94 198.11 480.713 197.911 480.344C197.883 480.23 197.854 480.145 197.826 480.088C197.798 480.031 197.783 479.847 197.783 479.534C197.783 479.165 197.94 478.91 198.252 478.768C198.593 478.597 198.848 478.484 199.018 478.427C199.331 478.37 199.799 478.342 200.424 478.342C201.049 478.313 201.616 478.271 202.127 478.214C202.383 478.186 202.71 478.143 203.107 478.086C203.505 478.029 203.93 477.944 204.385 477.831C204.867 477.717 205.35 477.575 205.833 477.405C206.315 477.234 206.756 477.036 207.153 476.809ZM270.185 450.446V449.85C270.185 448.174 270.341 446.414 270.654 444.568C270.994 442.695 271.463 440.835 272.059 438.989C272.655 437.144 273.379 435.355 274.231 433.623C275.083 431.891 276.048 430.301 277.127 428.853C278.32 427.291 279.654 425.9 281.131 424.679C282.636 423.43 284.24 422.365 285.943 421.485C287.675 420.605 289.507 419.938 291.437 419.483C293.368 419.001 295.37 418.759 297.442 418.759C299.174 418.759 300.963 418.93 302.809 419.27C304.654 419.583 306.358 420.065 307.919 420.718C309.197 421.315 310.347 422.039 311.369 422.89C312.42 423.714 313.527 424.537 314.691 425.361C314.805 425.503 314.918 425.588 315.032 425.616C315.174 425.645 315.302 425.659 315.415 425.659C315.671 425.659 315.898 425.474 316.097 425.105C316.409 424.566 316.693 423.884 316.948 423.061C317.204 422.209 317.488 421.485 317.8 420.889C317.914 420.633 318.042 420.491 318.183 420.463C318.325 420.406 318.482 420.378 318.652 420.378C318.851 420.378 318.993 420.449 319.078 420.591C319.191 420.733 319.248 420.832 319.248 420.889C319.475 421.883 319.603 422.876 319.632 423.87C319.688 424.864 319.717 425.9 319.717 426.979V429.449C319.717 429.818 319.717 430.187 319.717 430.557C319.717 430.926 319.731 431.309 319.759 431.706C319.873 432.785 320.015 433.722 320.185 434.517C320.356 435.312 320.441 436.079 320.441 436.817C320.441 437.243 320.37 437.697 320.228 438.18C320.114 438.634 319.859 438.861 319.461 438.861C319.291 438.861 319.049 438.649 318.737 438.223C318.453 437.797 318.155 437.328 317.843 436.817C317.53 436.278 317.218 435.752 316.906 435.241C316.622 434.73 316.423 434.39 316.31 434.219C315.515 433.084 314.748 432.005 314.01 430.982C313.3 429.96 312.562 429.009 311.795 428.129C311.057 427.22 310.262 426.397 309.41 425.659C308.587 424.892 307.664 424.211 306.642 423.614C305.762 423.075 304.924 422.663 304.129 422.379C303.334 422.067 302.553 421.84 301.787 421.698C301.048 421.556 300.31 421.471 299.572 421.442C298.834 421.414 298.081 421.4 297.315 421.4C296.122 421.4 295.015 421.57 293.993 421.911C292.999 422.223 292.062 422.663 291.182 423.231C290.302 423.799 289.478 424.452 288.712 425.19C287.973 425.928 287.249 426.709 286.54 427.533C284.495 429.946 282.948 433.169 281.897 437.2C280.875 441.204 280.364 446.002 280.364 451.596C280.364 454.378 280.605 456.905 281.088 459.177C281.599 461.42 282.224 463.421 282.962 465.182C283.7 466.914 284.509 468.418 285.39 469.696C286.298 470.945 287.15 471.968 287.945 472.763C288.797 473.671 289.606 474.466 290.373 475.148C291.168 475.801 291.991 476.34 292.843 476.766C293.695 477.192 294.617 477.518 295.611 477.746C296.605 477.944 297.726 478.044 298.976 478.044C300.878 478.044 302.738 477.632 304.555 476.809C306.372 475.985 308.147 474.906 309.879 473.572C310.248 473.288 310.631 472.947 311.028 472.55C311.426 472.152 311.809 471.755 312.178 471.357C312.576 470.96 312.931 470.576 313.243 470.207C313.584 469.81 313.868 469.455 314.095 469.143C315.003 467.723 315.798 466.346 316.48 465.011C317.161 463.677 317.786 462.3 318.354 460.88C318.638 460.454 319.135 460.241 319.844 460.241C320.157 460.241 320.37 460.355 320.483 460.582C320.597 460.809 320.654 461.079 320.654 461.391C320.199 462.953 319.802 464.372 319.461 465.65C319.12 466.899 318.751 468.234 318.354 469.654C318.098 470.676 317.914 471.684 317.8 472.677C317.687 473.643 317.573 474.509 317.459 475.275C317.346 476.014 317.218 476.61 317.076 477.064C316.934 477.518 316.707 477.746 316.395 477.746C316.168 477.746 315.983 477.66 315.841 477.49C315.699 477.32 315.557 477.05 315.415 476.681C315.358 476.397 315.259 476.156 315.117 475.957C315.003 475.73 314.791 475.616 314.478 475.616C314.166 475.616 313.868 475.673 313.584 475.786C313.328 475.9 313.002 476.085 312.604 476.34C312.207 476.567 311.71 476.851 311.114 477.192C310.517 477.504 309.722 477.873 308.729 478.299C306.911 479.037 304.967 479.634 302.894 480.088C300.821 480.514 298.763 480.727 296.718 480.727C293.737 480.727 291.011 480.344 288.541 479.577C286.071 478.782 283.729 477.447 281.514 475.573C279.754 474.069 278.178 472.351 276.787 470.42C275.395 468.461 274.203 466.388 273.209 464.202C272.244 462.016 271.491 459.759 270.952 457.43C270.441 455.074 270.185 452.746 270.185 450.446ZM371.591 479.534V468.418C371.591 468.277 371.562 467.993 371.505 467.567C371.477 467.112 371.434 466.729 371.378 466.417C371.378 466.36 371.321 466.275 371.207 466.161L371.079 466.033C370.881 466.033 370.71 466.19 370.568 466.502C370.057 467.553 369.631 468.404 369.291 469.057C368.978 469.71 368.652 470.307 368.311 470.846C367.97 471.386 367.559 471.939 367.076 472.507C366.622 473.047 366.011 473.714 365.245 474.509C364.421 475.417 363.399 476.227 362.178 476.936C360.986 477.618 359.708 478.2 358.345 478.683C357.011 479.165 355.662 479.534 354.299 479.79C352.936 480.017 351.673 480.131 350.509 480.131C349.401 480.131 348.294 480.031 347.187 479.832C346.108 479.605 345.285 479.336 344.717 479.023C343.723 478.484 342.829 477.859 342.034 477.149C341.267 476.439 340.585 475.701 339.989 474.935C339.393 474.168 338.882 473.387 338.456 472.592C338.059 471.797 337.76 471.045 337.562 470.335C337.391 469.824 337.235 469.114 337.093 468.206C336.98 467.297 336.866 466.303 336.752 465.224C336.667 464.145 336.582 463.038 336.497 461.902C336.44 460.738 336.383 459.659 336.327 458.666C336.298 457.643 336.27 456.749 336.241 455.982C336.241 455.216 336.241 454.691 336.241 454.407V421.996C336.241 421.599 335.972 421.4 335.432 421.4H327.298C326.872 421.4 326.659 421.031 326.659 420.293C326.659 419.668 326.872 419.356 327.298 419.356H344.93C345.1 419.356 345.299 419.427 345.526 419.568C345.753 419.682 345.867 419.923 345.867 420.293V457.43C345.867 463.251 346.945 467.567 349.103 470.378C351.006 472.848 353.717 474.083 357.238 474.083C357.692 474.083 358.161 474.026 358.643 473.913C359.126 473.799 359.595 473.671 360.049 473.529C360.532 473.359 360.972 473.188 361.369 473.018C361.795 472.819 362.178 472.635 362.519 472.464C363.712 471.84 364.748 471.187 365.628 470.505C366.508 469.796 367.275 469.043 367.928 468.248C368.609 467.425 369.177 466.53 369.631 465.565C370.086 464.6 370.469 463.535 370.781 462.371C370.923 461.888 371.037 461.32 371.122 460.667C371.236 460.014 371.321 459.333 371.378 458.623C371.463 457.885 371.52 457.146 371.548 456.408C371.576 455.67 371.591 455.003 371.591 454.407V422.209C371.221 421.726 370.568 421.428 369.631 421.315C368.723 421.173 367.786 421.073 366.821 421.017C366.48 421.017 366.139 421.017 365.798 421.017C365.458 420.988 365.032 420.974 364.521 420.974C364.038 420.974 363.399 420.96 362.604 420.931C361.838 420.903 360.872 420.889 359.708 420.889C359.14 420.889 358.856 420.562 358.856 419.909C358.856 419.625 358.942 419.37 359.112 419.143C359.282 418.887 359.666 418.759 360.262 418.759L380.492 418.887C380.747 418.887 380.946 419.029 381.088 419.313C381.23 419.597 381.301 419.923 381.301 420.293L380.747 473.785C380.918 474.012 381.258 474.154 381.769 474.211C382.309 474.267 382.777 474.296 383.175 474.296C384.481 474.296 385.744 474.182 386.965 473.955C388.215 473.7 389.549 473.572 390.969 473.572C391.451 473.572 391.693 473.842 391.693 474.381C391.693 474.665 391.522 474.906 391.182 475.105C390.841 475.275 390.429 475.432 389.947 475.573C389.492 475.687 388.995 475.786 388.456 475.872C387.945 475.957 387.505 476.042 387.136 476.127C385.801 476.439 384.396 476.766 382.919 477.107C381.443 477.419 379.995 477.831 378.575 478.342C378.178 478.484 377.681 478.683 377.085 478.938C376.517 479.165 375.935 479.392 375.338 479.619C374.742 479.847 374.188 480.045 373.677 480.216C373.166 480.386 372.783 480.471 372.528 480.471C372.3 480.471 372.087 480.4 371.889 480.258C371.69 480.088 371.591 479.847 371.591 479.534ZM426.233 426.17V475.573C426.233 476.227 426.588 476.723 427.297 477.064C428.036 477.405 428.873 477.66 429.81 477.831C430.776 478.001 431.727 478.129 432.664 478.214C433.601 478.271 434.282 478.342 434.708 478.427C434.964 478.739 435.105 478.966 435.134 479.108C435.191 479.222 435.219 479.407 435.219 479.662C435.219 479.918 435.134 480.131 434.964 480.301C434.822 480.471 434.637 480.599 434.41 480.684C434.183 480.798 433.927 480.883 433.643 480.94C433.388 480.997 433.146 481.025 432.919 481.025C432.351 481.025 431.485 480.968 430.321 480.855C429.157 480.741 427.922 480.613 426.616 480.471C425.338 480.358 424.089 480.244 422.868 480.131C421.676 480.017 420.753 479.96 420.1 479.96C418.992 479.96 417.928 479.974 416.906 480.003C415.883 480.031 414.819 480.145 413.711 480.344C413.484 480.344 413.115 480.386 412.604 480.471C412.121 480.585 411.582 480.698 410.986 480.812C410.389 480.926 409.793 481.025 409.197 481.11C408.629 481.224 408.161 481.28 407.791 481.28C407.508 481.28 407.295 481.153 407.153 480.897C407.011 480.67 406.94 480.485 406.94 480.344C406.94 479.974 407.138 479.676 407.536 479.449C407.962 479.222 408.317 479.08 408.601 479.023C408.771 478.938 409.083 478.839 409.538 478.725C410.02 478.612 410.546 478.498 411.113 478.384C411.681 478.242 412.221 478.115 412.732 478.001C413.271 477.859 413.697 477.731 414.01 477.618C414.464 477.504 414.861 477.391 415.202 477.277C415.543 477.135 415.827 476.965 416.054 476.766C416.281 476.539 416.451 476.255 416.565 475.914C416.678 475.545 416.735 475.077 416.735 474.509V427.873C416.735 427.646 416.721 427.405 416.693 427.149C416.664 426.865 416.607 426.61 416.522 426.383C416.437 426.156 416.309 425.971 416.139 425.829C415.969 425.687 415.727 425.616 415.415 425.616H405.875C404.597 425.616 403.504 425.73 402.596 425.957C401.687 426.156 400.849 426.482 400.083 426.936C399.146 427.419 398.195 428.072 397.229 428.896C396.292 429.719 395.568 430.585 395.057 431.494C394.972 431.635 394.887 431.834 394.802 432.09C394.745 432.345 394.66 432.601 394.546 432.856C394.433 433.112 394.305 433.339 394.163 433.538C394.021 433.737 393.851 433.836 393.652 433.836C393.538 433.836 393.41 433.751 393.269 433.58C393.127 433.41 392.985 433.197 392.843 432.942C392.701 432.658 392.573 432.359 392.459 432.047C392.374 431.706 392.332 431.38 392.332 431.068C392.332 430.443 392.459 429.79 392.715 429.109C392.999 428.427 393.34 427.703 393.737 426.936C394.135 426.17 394.56 425.346 395.015 424.466C395.469 423.558 395.881 422.564 396.25 421.485V420.718C396.25 420.52 396.292 420.307 396.378 420.08C396.52 419.824 396.718 419.682 396.974 419.654C397.258 419.597 397.556 419.568 397.868 419.568C398.124 419.568 398.337 419.654 398.507 419.824C398.677 419.966 398.848 420.136 399.018 420.335C399.188 420.534 399.373 420.747 399.572 420.974C399.799 421.173 400.069 421.315 400.381 421.4C400.722 421.485 401.375 421.599 402.34 421.741C403.305 421.854 404.626 421.968 406.301 422.081C408.004 422.195 410.077 422.294 412.519 422.379C414.961 422.465 417.843 422.507 421.165 422.507C421.96 422.507 422.868 422.493 423.89 422.465C424.912 422.408 425.963 422.351 427.042 422.294C428.149 422.237 429.242 422.195 430.321 422.166C431.4 422.11 432.394 422.081 433.303 422.081C434.012 422.081 434.651 422.11 435.219 422.166C435.787 422.223 436.397 422.308 437.05 422.422C437.391 422.479 437.76 422.536 438.158 422.592C438.555 422.649 438.953 422.706 439.35 422.763C439.748 422.791 440.117 422.819 440.458 422.848C440.798 422.876 441.068 422.89 441.267 422.89C441.806 422.89 442.076 422.592 442.076 421.996C442.076 421.684 442.175 421.386 442.374 421.102C442.63 420.789 442.97 420.42 443.396 419.994C443.822 419.568 444.191 419.356 444.504 419.356C444.731 419.356 444.972 419.512 445.228 419.824C445.511 420.136 445.781 420.52 446.037 420.974C446.321 421.4 446.576 421.84 446.803 422.294C447.059 422.72 447.272 423.061 447.442 423.316C447.641 423.771 447.783 424.324 447.868 424.977C447.953 425.602 448.053 426.085 448.166 426.425C448.28 426.681 448.521 427.093 448.89 427.66C449.288 428.228 449.685 428.839 450.083 429.492C450.48 430.116 450.835 430.727 451.147 431.323C451.488 431.919 451.659 432.388 451.659 432.729C451.659 433.467 451.332 433.836 450.679 433.836C450.281 433.836 449.799 433.609 449.231 433.154C448.691 432.7 448.109 432.175 447.485 431.579C446.889 430.982 446.278 430.386 445.653 429.79C445.029 429.165 444.447 428.683 443.907 428.342C443.538 428.115 443.027 427.859 442.374 427.575C441.749 427.291 441.082 427.007 440.372 426.723C439.663 426.44 438.967 426.198 438.285 425.999C437.604 425.801 437.022 425.673 436.539 425.616C435.773 425.474 434.978 425.403 434.154 425.403C433.331 425.375 432.536 425.361 431.769 425.361H429.342C429.257 425.361 429.044 425.375 428.703 425.403C428.391 425.432 428.05 425.488 427.681 425.574C427.312 425.63 426.971 425.716 426.659 425.829C426.375 425.914 426.233 426.028 426.233 426.17Z" fill="#1E1E1E"/>
<path d="M60.444 419.355H60.5291C59.0527 419.355 57.5053 419.512 55.8869 419.824C54.2401 420.136 52.6075 420.576 50.9891 421.144C49.3707 421.684 47.8375 422.365 46.3895 423.189C44.913 423.984 43.607 424.864 42.4713 425.829C40.4554 427.589 38.7376 429.336 37.3179 431.068C35.8983 432.771 34.7484 434.56 33.8682 436.434C32.988 438.279 32.3492 440.253 31.9517 442.354C31.5542 444.455 31.3554 446.755 31.3554 449.253C31.3554 451.894 31.6536 454.548 32.2498 457.217C32.8461 459.886 33.7546 462.428 34.9755 464.841C36.1964 467.226 37.7438 469.412 39.6178 471.4C41.4917 473.387 43.6922 475.02 46.2191 476.297C46.645 476.525 47.1561 476.766 47.7523 477.021C48.3202 477.249 48.9023 477.476 49.4985 477.703C50.0664 477.93 50.62 478.143 51.1595 478.342C51.6706 478.54 52.0965 478.697 52.4372 478.81C52.5507 478.924 52.6501 479.009 52.7353 479.066C52.8205 479.123 52.8631 479.179 52.8631 479.236C52.8631 479.378 52.7211 479.506 52.4372 479.619C51.4434 479.932 50.4497 480.187 49.4559 480.386C48.4338 480.613 47.44 480.84 46.4747 481.067C43.2947 481.721 40.143 482.303 37.0198 482.814C33.8682 483.325 30.6598 483.807 27.3946 484.262C24.0443 484.688 20.7649 484.971 17.5565 485.113C14.3481 485.284 11.2391 485.369 8.22941 485.369C6.29869 485.369 4.86485 485.341 3.92789 485.284C2.96253 485.227 2.40886 485.199 2.2669 485.199C1.72744 485.199 1.37252 485.241 1.20217 485.326C1.00342 485.412 0.904041 485.525 0.904041 485.667C0.904041 485.724 0.975023 485.795 1.11699 485.88C1.23056 485.965 1.37252 486.05 1.54288 486.136C1.71324 486.221 1.89779 486.292 2.09654 486.349C2.2669 486.405 2.39467 486.448 2.47985 486.476C3.01931 486.618 3.57297 486.76 4.14083 486.902C4.70869 487.044 5.24816 487.172 5.75923 487.286C6.2703 487.427 6.73878 487.541 7.16468 487.626C7.56218 487.74 7.8887 487.839 8.14423 487.924C8.34298 487.981 9.02441 488.137 10.1885 488.393C11.3526 488.677 12.7865 488.989 14.49 489.33C15.9949 489.585 17.3719 489.784 18.6212 489.926C19.8705 490.096 21.0914 490.224 22.2839 490.309C23.4764 490.423 24.6973 490.494 25.9466 490.522C27.1675 490.551 28.5019 490.565 29.95 490.565C31.3128 490.565 32.6189 490.536 33.8682 490.48C35.1175 490.451 36.3668 490.38 37.6161 490.267C38.8654 490.153 40.143 489.997 41.4491 489.798C42.7552 489.6 44.1606 489.344 45.6655 489.032C49.0726 488.322 52.5365 487.314 56.0573 486.008C59.5496 484.702 62.829 483.183 65.8954 481.451C67.0595 480.798 68.1952 480.145 69.3026 479.492C70.3815 478.839 71.4462 478.157 72.4968 477.447C73.5189 476.738 74.5552 475.985 75.6058 475.19C76.6279 474.395 77.6501 473.515 78.6722 472.55C79.4104 471.868 80.2196 471.045 81.0998 470.079C81.98 469.086 82.8602 468.049 83.7404 466.97C84.5921 465.863 85.4013 464.756 86.1679 463.648C86.9062 462.513 87.5166 461.448 87.9993 460.454C90.072 456.422 91.1083 452.121 91.1083 447.55C91.1083 444.512 90.6114 441.601 89.6177 438.819C88.6239 436.036 87.1617 433.353 85.231 430.769C84.0385 429.208 82.633 427.76 81.0146 426.425C79.3678 425.091 77.5223 423.927 75.478 422.933C73.4053 421.911 71.1197 421.102 68.6211 420.505C66.0942 419.881 63.3684 419.497 60.444 419.355ZM61.0402 422.081C62.7438 422.081 64.1492 422.237 65.2566 422.55C66.3639 422.834 67.4428 423.231 68.4934 423.742C69.6291 424.31 70.6512 424.977 71.5598 425.744C72.44 426.51 73.235 427.348 73.9448 428.257C74.6262 429.137 75.2509 430.045 75.8187 430.982C76.3582 431.919 76.8551 432.828 77.3094 433.708C77.7353 434.56 78.1328 435.397 78.5019 436.221C78.871 437.016 79.2117 437.853 79.524 438.734C79.8363 439.585 80.1061 440.494 80.3332 441.459C80.5603 442.425 80.7591 443.504 80.9295 444.696C81.0714 445.974 81.1992 447.45 81.3128 449.125C81.3979 450.772 81.4405 452.334 81.4405 453.81C81.4405 455.855 81.256 457.941 80.8869 460.071C80.5178 462.172 79.9499 464.188 79.1833 466.119C78.1328 468.816 76.7699 471.116 75.0947 473.018C73.4195 474.892 71.2901 476.567 68.7063 478.044C67.2299 478.867 65.8244 479.392 64.49 479.619C63.1271 479.847 61.7075 479.96 60.231 479.96C59.2089 479.96 58.1867 479.776 57.1646 479.406C56.1424 479.009 55.1487 478.512 54.1833 477.916C53.218 477.291 52.3378 476.61 51.5428 475.872C50.7194 475.133 50.0096 474.409 49.4133 473.7C48.6751 472.848 48.0363 472.024 47.4968 471.229C46.9573 470.434 46.4747 469.668 46.0488 468.929C45.6229 468.191 45.2396 467.453 44.8989 466.715C44.5581 465.948 44.2174 465.182 43.8767 464.415C43.2805 463.137 42.7978 461.874 42.4287 460.625C42.0596 459.375 41.7756 458.126 41.5769 456.877C41.3497 455.599 41.2078 454.307 41.151 453.001C41.0658 451.667 41.0232 450.275 41.0232 448.827C41.0232 447.663 41.0516 446.428 41.1084 445.122C41.1652 443.788 41.3497 442.51 41.6621 441.289C42.0596 439.841 42.5564 438.365 43.1527 436.86C43.7205 435.326 44.3594 433.864 45.0692 432.473C45.779 431.082 46.5598 429.804 47.4116 428.64C48.2634 427.447 49.172 426.454 50.1373 425.659C51.8693 424.267 53.6439 423.33 55.461 422.848C57.2498 422.337 59.1095 422.081 61.0402 422.081Z" fill="#1E1E1E"/>
<defs>
<filter id="filter0_d_19_22" x="97.077" y="0" width="284.718" height="393.412" filterUnits="userSpaceOnUse" color-interpolation-filters="sRGB">
<feFlood flood-opacity="0" result="BackgroundImageFix"/>
<feColorMatrix in="SourceAlpha" type="matrix" values="0 0 0 0 0 0 0 0 0 0 0 0 0 0 0 0 0 0 127 0" result="hardAlpha"/>
<feOffset dy="3.85388"/>
<feGaussianBlur stdDeviation="1.92694"/>
<feComposite in2="hardAlpha" operator="out"/>
<feColorMatrix type="matrix" values="0 0 0 0 0 0 0 0 0 0 0 0 0 0 0 0 0 0 0.25 0"/>
<feBlend mode="normal" in2="BackgroundImageFix" result="effect1_dropShadow_19_22"/>
<feBlend mode="normal" in="SourceGraphic" in2="effect1_dropShadow_19_22" result="shape"/>
</filter>
</defs>
</svg>
