<svg width="26" height="26" viewBox="0 0 26 26" fill="none" xmlns="http://www.w3.org/2000/svg">
<path d="M14.1475 4.4552C14.4553 4.14756 14.8726 3.97473 15.3077 3.97473C15.7429 3.97473 16.1602 4.14756 16.4679 4.4552L23.8525 11.8398C24.1602 12.1476 24.333 12.5649 24.333 13C24.333 13.4352 24.1602 13.8525 23.8525 14.1602L16.4679 21.5448C16.1584 21.8438 15.7439 22.0092 15.3136 22.0054C14.8834 22.0017 14.4718 21.8291 14.1675 21.5249C13.8633 21.2206 13.6907 20.809 13.6869 20.3787C13.6832 19.9485 13.8486 19.5339 14.1475 19.2244L18.5898 14.641H3.00003C2.56481 14.641 2.14741 14.4682 1.83965 14.1604C1.5319 13.8526 1.35901 13.4352 1.35901 13C1.35901 12.5648 1.5319 12.1474 1.83965 11.8396C2.14741 11.5319 2.56481 11.359 3.00003 11.359H18.5898L14.1475 6.77561C13.8399 6.46787 13.6671 6.05055 13.6671 5.61541C13.6671 5.18027 13.8399 4.76294 14.1475 4.4552Z" fill="white"/>
</svg>
