<svg width="46" height="46" viewBox="0 0 46 46" fill="none" xmlns="http://www.w3.org/2000/svg">
<path d="M13.0947 0H32.0595C39.2842 0 45.1543 5.87005 45.1543 13.0947V32.0595C45.1543 35.5325 43.7746 38.8632 41.3189 41.3189C38.8632 43.7746 35.5325 45.1543 32.0595 45.1543H13.0947C5.87005 45.1543 0 39.2842 0 32.0595V13.0947C0 9.6218 1.37962 6.2911 3.83536 3.83536C6.2911 1.37962 9.6218 0 13.0947 0ZM12.6432 4.51543C10.4876 4.51543 8.42025 5.37174 6.89599 6.89599C5.37174 8.42025 4.51543 10.4876 4.51543 12.6432V32.5111C4.51543 37.0039 8.15034 40.6388 12.6432 40.6388H32.5111C34.6667 40.6388 36.734 39.7825 38.2583 38.2583C39.7825 36.734 40.6388 34.6667 40.6388 32.5111V12.6432C40.6388 8.15034 37.0039 4.51543 32.5111 4.51543H12.6432ZM34.4301 7.902C35.1786 7.902 35.8964 8.19933 36.4257 8.72858C36.9549 9.25784 37.2523 9.97566 37.2523 10.7241C37.2523 11.4726 36.9549 12.1904 36.4257 12.7197C35.8964 13.2489 35.1786 13.5463 34.4301 13.5463C33.6816 13.5463 32.9638 13.2489 32.4346 12.7197C31.9053 12.1904 31.608 11.4726 31.608 10.7241C31.608 9.97566 31.9053 9.25784 32.4346 8.72858C32.9638 8.19933 33.6816 7.902 34.4301 7.902ZM22.5771 11.2886C25.571 11.2886 28.4423 12.4779 30.5594 14.5949C32.6764 16.7119 33.8657 19.5832 33.8657 22.5771C33.8657 25.571 32.6764 28.4423 30.5594 30.5594C28.4423 32.6764 25.571 33.8657 22.5771 33.8657C19.5832 33.8657 16.7119 32.6764 14.5949 30.5594C12.4779 28.4423 11.2886 25.571 11.2886 22.5771C11.2886 19.5832 12.4779 16.7119 14.5949 14.5949C16.7119 12.4779 19.5832 11.2886 22.5771 11.2886ZM22.5771 15.804C20.7808 15.804 19.058 16.5176 17.7878 17.7878C16.5176 19.058 15.804 20.7808 15.804 22.5771C15.804 24.3735 16.5176 26.0963 17.7878 27.3665C19.058 28.6367 20.7808 29.3503 22.5771 29.3503C24.3735 29.3503 26.0963 28.6367 27.3665 27.3665C28.6367 26.0963 29.3503 24.3735 29.3503 22.5771C29.3503 20.7808 28.6367 19.058 27.3665 17.7878C26.0963 16.5176 24.3735 15.804 22.5771 15.804Z" fill="white"/>
</svg>
