<svg width="41" height="45" viewBox="0 0 41 45" fill="none" xmlns="http://www.w3.org/2000/svg">
<path d="M31.9427 7.05C30.2337 5.09906 29.2919 2.59358 29.2927 0H21.5677V31C21.5081 32.6776 20.7998 34.2665 19.5921 35.4323C18.3843 36.5981 16.7713 37.2498 15.0927 37.25C11.5427 37.25 8.59265 34.35 8.59265 30.75C8.59265 26.45 12.7427 23.225 17.0177 24.55V16.65C8.39265 15.5 0.842651 22.2 0.842651 30.75C0.842651 39.075 7.74265 45 15.0677 45C22.9177 45 29.2927 38.625 29.2927 30.75V15.025C32.4251 17.2746 36.1861 18.4816 40.0427 18.475V10.75C40.0427 10.75 35.3427 10.975 31.9427 7.05Z" fill="white"/>
</svg>
